PathFileType	4	(X/Y/Z)	33_2_9_p0_0-621_filt_butterworth.trc
DataRate	CameraRate	NumFrames	NumMarkers	Units	OrigDataRate	OrigDataStartFrame	OrigNumFrames
60.0	60.0	5	27	m	60.0	232	621
Frame#	Time	RHip			RKnee			RAnkle			RBigToe			RSmallToe			RHeel			LHip			LKnee			LAnkle			LBigToe			LSmallToe			LHeel			Neck			Head			Nose			RShoulder			RElbow			RWrist			RThumb			RIndex			RPinky			LShoulder			LElbow			LWrist			LThumb			LIndex			LPinky			
		X1	Y1	Z1	X2	Y2	Z2	X3	Y3	Z3	X4	Y4	Z4	X5	Y5	Z5	X6	Y6	Z6	X7	Y7	Z7	X8	Y8	Z8	X9	Y9	Z9	X10	Y10	Z10	X11	Y11	Z11	X12	Y12	Z12	X13	Y13	Z13	X14	Y14	Z14	X15	Y15	Z15	X16	Y16	Z16	X17	Y17	Z17	X18	Y18	Z18	X19	Y19	Z19	X20	Y20	Z20	X21	Y21	Z21	X22	Y22	Z22	X23	Y23	Z23	X24	Y24	Z24	X25	Y25	Z25	X26	Y26	Z26	X27	Y27	Z27	
232	3.8666666666666663	0.2828199294611107	0.2449156791165094	0.17514700227803634	0.2599452002433976	0.4870144739311732	0.5530945914345032	0.25066091291670256	0.743513234256127	0.9253902309526542	0.27724863538857036	0.5949986353237439	0.9995292271098641	0.3252691160362177	0.6215160885282073	0.9960219011294161	0.2178309150851147	0.8950749489174321	0.9854174253436927	0.08023015238688896	0.20844707089011238	0.1593596486466375	0.054707673545288014	0.48790140576024527	0.5396950378473993	0.058338438120682734	0.7571911168146532	0.9405219255338426	0.09719996498025428	0.5589108863614225	0.995858155406892	0.047933984422166655	0.5942456689928227	0.991622523421522	0.06882505210925104	0.8393533797168918	0.982048201547734	0.23541679849845062	-0.009938190759121475	-0.37337030255433046	0.2415993139692024	-0.08786539151576399	-0.5957715379390259	0.24455153929645318	-0.19117455333202377	-0.4470697669540469	0.3806327548861248	0.03940970565854593	-0.24629804506224337	0.41340410789094945	0.12227849562210194	-0.007454356398895804	0.38947673157306545	0.18016280301528684	0.24497464904389363	0.3384040341077493	0.22249365326280005	0.35876685523404883	0.3548244904241961	0.19664132318154914	0.3868004664842023	0.3643890690514294	0.25062421897257126	0.359836625187705	0.08288043584442448	-0.01905500720645914	-0.3024293906712452	-0.08301134184834857	-0.1893329152530822	-0.423613788669858	0.05745780153094603	-0.16089975134829787	-0.5480814037417041	0.16217849533398174	-0.1485453219842342	-0.5341355821222211	0.15856543410379814	-0.15513086049766728	-0.5462778157094021	0.11113426999411	-0.2009202819815359	-0.5223864239424323
233	3.883333333333333	0.2834952462000495	0.24451700371536597	0.17635829709636447	0.2600244957311592	0.48628359530383214	0.5510250803396342	0.25065829353322905	0.7435175616097758	0.9253590855372935	0.27730846253943564	0.5951956877066972	0.9996057156544185	0.3253147549911531	0.6215589463463627	0.9960349130811709	0.21780161825414535	0.8950765751845158	0.9854089584871575	0.08047435950349582	0.20766126666809742	0.15761629056664161	0.054698158783253834	0.48790212279522344	0.5396873818687383	0.05787049086840516	0.7566375473438719	0.9405882331292661	0.09713158306237796	0.558604131243242	0.9954099879713436	0.0471913030554662	0.5959653777288756	0.9918101586971356	0.06878373881314918	0.839284819384085	0.9819556338088277	0.23540929225998164	-0.009946701795821567	-0.3732808657238409	0.24126089095759845	-0.08899559255521323	-0.5958645705877302	0.24579117733756842	-0.1903792449480864	-0.4473093290347627	0.3810532575988065	0.03902706901436903	-0.2472463228440166	0.41343981887561565	0.12216641904437683	-0.0075481016898333	0.3907981259493466	0.1813632632273893	0.24363684842286723	0.3382043399749214	0.22308294781104135	0.3573428136663822	0.3540434735911848	0.19885822761805003	0.3861809455921329	0.3670251802748699	0.247178787581418	0.3590503729960375	0.08362810406726646	-0.02059962476144956	-0.3023142566153971	-0.08306084521212626	-0.18971444566955087	-0.4247996601344024	0.05926620578773436	-0.16414908957701682	-0.5476107264256225	0.1640767850361663	-0.15072808116046732	-0.5333327176917703	0.1607396436559512	-0.16134606946664123	-0.543971099121267	0.11179662796263669	-0.20138705835974313	-0.5220773801825043
234	3.9	0.28460606802961536	0.2408682285612388	0.17715066732844129	0.26010579415188123	0.485105122843917	0.5483878519402385	0.2506577939461503	0.7435198925355346	0.9253313970142082	0.277392466862744	0.5952100138928484	0.999695116589385	0.3253783330587046	0.6216442132253704	0.9960816837305948	0.21769023014197864	0.8949941425473034	0.9853599513657716	0.08084050340824327	0.20644956173937518	0.1551898155923526	0.054694380106559956	0.4878865913734938	0.5396504927327413	0.0566530763299684	0.7548946970932942	0.9405109900757599	0.09699764793746338	0.5578088551787718	0.994276241526422	0.04547287681710213	0.6001067209220251	0.9922642530989614	0.06875675829554583	0.8391841897938839	0.9818813514424962	0.23537718822889905	-0.009951444415267099	-0.37311437193675345	0.2405496209074497	-0.0922330209710978	-0.5948233568977522	0.24666580297147017	-0.1898844490496768	-0.4474866906729203	0.38105488307310825	0.04020959210576091	-0.25066389112786874	0.4134749517978541	0.12210991874994022	-0.007571810509124895	0.39215159308154557	0.18158377135209275	0.24222541562356825	0.3397976313549058	0.21931704848064404	0.3564537695340093	0.354190735671103	0.19854694757140612	0.38697860479049645	0.37108213323351974	0.2391435013035928	0.3590778368534258	0.08419168013099815	-0.022783602442848827	-0.3022320477456647	-0.0830800384171085	-0.1904805604933814	-0.4257868945136466	0.06253887309571748	-0.16967383304574896	-0.5464483649495369	0.16458529381671422	-0.15293747704734995	-0.5329331759252572	0.16341358250669924	-0.16888603879977512	-0.5429152162128548	0.11332966295711416	-0.199549982776947	-0.5219847385779408
235	3.9166666666666665	0.2856462283767107	0.2350095535351199	0.17731814548609426	0.26007010283074056	0.48386816248032066	0.5459628476350048	0.2506568905951303	0.7435195547507245	0.9253341021739241	0.2774633987194387	0.5951565054768678	0.9997540613365776	0.32544141708173185	0.6217143662457789	0.9961523592864322	0.21738211056301016	0.8946375852530174	0.9852222392805998	0.0810796434849745	0.2055136902797946	0.15308120258995633	0.05477020768704879	0.48787435192689055	0.5396040442300574	0.05502191898944167	0.7525998334814836	0.9400243153333592	0.09683435608620174	0.5567322849556406	0.9927837923762188	0.04327080272562893	0.6055152917779494	0.992855111513593	0.06873539340417663	0.839091054371143	0.9818416053008123	0.2353336762448977	-0.009959915816714161	-0.3729960572406952	0.23969400654695067	-0.09651492855073786	-0.593816834519322	0.24696291489014627	-0.18990698571693115	-0.4479533350170048	0.38084792205758533	0.04089297709332905	-0.2546180921247564	0.41349614216837316	0.12210246428905727	-0.007544967474742301	0.39362989395374776	0.18165255732304925	0.24120314908579887	0.3434042351820714	0.20962200958708535	0.3560939170643758	0.355946963412149	0.19405112571715216	0.3882198786084967	0.3739658415378614	0.2315792220320758	0.3594499804867713	0.08345749499604105	-0.02414768661619079	-0.30300461167416076	-0.08319617192685459	-0.19218436521186513	-0.4262571726060164	0.06634398470591414	-0.17602355635870842	-0.5450088201010281	0.16401432587263245	-0.1544149747041517	-0.5343758776278373	0.1657316381710032	-0.17443612179695298	-0.5433088645036284	0.11466997205677865	-0.19819028035725414	-0.5208813936934512
236	3.933333333333333	0.28623452799781085	0.22985998005229502	0.1766577282295892	0.25981225259335833	0.48301684518211313	0.5444009355338589	0.25064890463093487	0.7435435027000538	0.925401292377644	0.27751513713221365	0.5950024354343434	0.9997322543834343	0.325459840283102	0.6216802892639963	0.9960980672558075	0.21692052545916515	0.8940991865980792	0.9851070449638911	0.0810703153784938	0.20525015646182812	0.1519110616577748	0.055053932808200715	0.4879358477262781	0.53956424837396	0.05388453543926448	0.7519369984377837	0.938972397986427	0.09671731007144307	0.5558724387880785	0.9916480793182348	0.04163810264009529	0.609657002828615	0.9933040784530673	0.06870889724243126	0.8390323433576328	0.9818373055098757	0.23531418397164938	-0.010103294671697571	-0.37337462050055736	0.23944284881832525	-0.09969056608299909	-0.5943311356583665	0.24686599446592417	-0.19056642406609825	-0.4491258572779858	0.38041290131613714	0.03958761245452423	-0.25684812453402367	0.4134910063844207	0.12209610176114853	-0.007590611114610217	0.3945702835856013	0.18148385449113574	0.24073900288523326	0.3476354209695031	0.19746006921986675	0.3560858264812545	0.35861633606813614	0.18807323354521985	0.38850663947712444	0.3742779536298673	0.2277129099335367	0.35969632275883917	0.08150842152891162	-0.0242950871598953	-0.3050205336664469	-0.08350292449946468	-0.1950657397952251	-0.42575707601829604	0.069407156770592	-0.1824531608532816	-0.5436586332962297	0.1632500441105213	-0.1548748839872136	-0.5381268228364204	0.16735733650827195	-0.17650178530012856	-0.5444129041008116	0.1142583694335133	-0.20045129558325064	-0.5185735613450566
